<?xml version="1.0" encoding="UTF-8"?>
<svg xmlns="http://www.w3.org/2000/svg" viewBox="0 0 1095 1095" width="1095" height="1095">
<path d="M299.5 99.92C293.72 99.51 291.04 96.12 287.21 92.25C285.69 90.72 283.4 90.05 281.98 88.51C279.2 85.51 278.24 79.34 278.27 75.5C284.52 70.07 295.78 69.5 302 75.5C308.51 81.79 306.94 95.04 299.5 99.92ZM816.92 75.5C816.96 79.36 816 85.66 813.16 88.66C811.71 90.18 809.43 90.83 807.9 92.4C803.96 96.41 800.9 100.38 794.8 99.5C789.65 94.13 787.49 86.01 790.63 79.11C795.02 69.47 809.81 69.3 816.92 75.5ZM541.81 188.45C547.13 187.92 552.23 188.72 557.5 188.93C560.18 189.04 562.81 188.61 565.5 188.8C568.24 188.99 570.77 190.03 573.5 190.12C582.73 190.41 592.24 189.15 601.46 190.24C641.27 194.93 676.19 210.01 704.1 239.39C717.14 253.11 728.24 269.67 735.36 287.22C741.62 302.67 746.7 318.74 747.78 335.5C748.78 350.96 747.71 366.47 743.89 381.5C729.24 439.29 676.61 479.32 620.35 492.73C610.21 495.14 599.94 497.29 589.5 497.87C584.51 498.15 579.48 497.26 574.55 497.51C570.87 497.7 567.2 498.64 563.5 498.82C558.18 499.08 552.82 498.58 547.5 498.58C542.18 498.58 536.81 499.1 531.5 498.8C527.83 498.6 524.16 497.63 520.49 497.51C512.03 497.22 503.86 498.07 495.36 496.84C462.43 492.1 429.38 479.03 403.07 458.44C390.68 448.75 378.99 437.4 370.43 424.1C359.25 406.74 351.81 387.7 348.35 367.32C346 353.5 346.35 338.24 348.95 324.5C358.47 274.34 385.11 235.65 429.27 209.76C446.58 199.6 465.8 194.45 485.48 191.84C488.5 191.44 491.46 190.46 494.5 190.17C503.44 189.33 512.57 190.3 521.5 190.11C524.56 190.05 527.41 188.87 530.5 188.73C534.32 188.56 537.98 188.84 541.81 188.45ZM448.73 253.37C430.53 256.22 414.85 267.92 403.41 281.89C382.36 307.61 372.67 342.67 377.69 375.51C380.72 395.32 392.66 427.29 415.53 430.85C420.52 431.62 428.62 432.86 433.48 432.02C441.08 430.71 447.5 426.17 454.07 422.59C457.56 420.69 461.18 419.36 464.43 416.97C466.93 415.13 468.82 412.66 471.1 410.59C477.85 404.48 484.12 398.4 489.46 390.94C505.17 368.98 512.57 338.2 509 311.5C504.74 279.6 485.6 247.6 448.73 253.37ZM629.75 253.4C602.98 257.98 591.18 284.64 586.86 308.47C580.2 345.24 595.37 385.89 623.49 410.02C630.43 415.98 631.8 417.86 640.34 422.18C653.8 428.99 655.98 433.03 672.4 431.33C676.2 430.94 679.75 431.01 683.44 429.87C703.74 423.61 714.05 395.64 717.36 376.71C723.75 340.22 710.74 299.29 684.01 273.48C669.68 259.65 650.14 249.9 629.75 253.4ZM535.26 410.5C534.09 406.44 533.09 401.65 529.78 398.72C522.17 391.98 510.58 397.61 508.39 406.8C505.83 417.54 518.84 429.11 525.64 435.85C528.62 438.81 530.92 441.82 534.83 443.68C538.97 445.66 542.99 445.84 547.5 445.84C558.46 445.83 562.05 443.41 569.48 435.97C572.32 433.13 575.3 430.5 577.95 427.45C582.4 422.31 588.18 414.76 586.98 407.53C585.51 398.7 574.97 392.54 567.06 397.56C561.96 400.8 562.92 405.99 559.81 410.3C558.71 411.82 556.47 412.3 555.05 413.55C552 416.23 551.56 419.26 547.5 420.78C544.03 419.31 543.5 417 541.06 414.44C539.37 412.68 537.33 411.71 535.26 410.5ZM700.77 628.14C700.76 630.08 700.76 632.01 700.76 633.95C700.76 638.09 699.65 642.32 699.23 646.5C698.36 655.12 697.67 663.85 697.16 672.5C696.56 682.8 696.96 693.19 696.62 703.5C695.95 723.83 695.26 744.16 694.92 764.5C694.8 771.88 693.24 779.1 693.11 786.5C692.93 795.78 694.67 805.34 696.09 814.5C696.58 817.62 698.24 821.35 698.02 824.48C697.76 828.18 694.56 834.41 694.14 839.5C693.27 850.15 694.8 860.86 694.45 871.5C693.93 887.54 692.18 903.48 691.2 919.5C690.72 927.16 691.12 934.84 690.86 942.5C690.55 951.51 689.58 960.5 689.06 969.5C688.84 973.4 689.17 977.28 688.76 981.17C688.51 982.94 688.25 984.72 688 986.5C688.19 986.55 688.38 986.61 688.57 986.66C687.88 990.19 687.19 993.72 686.5 997.25C679.69 999.81 672.73 1000.54 665.55 1001.32C654.82 1002.49 644.28 1003.65 633.5 1004.31C625.43 1004.8 616.47 1006.89 608.5 1005.29C605.36 987.11 606.9 971.61 606.8 953.5C606.78 948.81 605.7 944.15 605.68 939.5C605.66 937.12 606.47 934.83 606.57 932.46C606.87 925.43 605.46 918.29 604.18 911.45C602.53 902.63 603.74 885.5 595.34 880.14C588.61 875.85 580.72 879.2 573.53 879.91C562.86 880.98 552.12 879.09 541.47 879.85C534.99 880.31 527.95 880.59 521.49 879.88C513.12 878.97 501.95 874.81 496.29 883.76C491.58 891.21 492.72 902.13 491.16 910.5C489.87 917.44 488.68 924.4 488.77 931.5C488.8 934.19 489.67 936.86 489.61 939.5C489.49 945.17 488.39 950.76 488.62 956.5C489.27 972.6 490.67 989.95 486.5 1005.67C469.8 1005.29 453.06 1004.28 436.5 1002.21C427.09 1001.04 417.37 1000.72 408.5 997.09C407.92 993.69 407.34 990.3 406.75 986.91C406.61 984.99 406.46 983.07 406.31 981.15C404.72 960.66 405.13 940.03 404.01 919.5C403.15 903.82 401.25 888.22 400.84 872.5C400.55 861.53 402.03 850.45 401.08 839.5C400.83 836.72 400.22 833.7 399.49 831.01C398.93 828.93 397.3 826.61 397.21 824.48C396.96 818.38 402.15 809.05 402 802.5C401.91 798.87 401.17 795.21 401.15 791.5C401.11 787.08 401.96 782.39 401.42 778C401.19 776.12 400.37 774.38 400.25 772.49C399.61 761.58 400.11 750.45 399.92 739.5C399.69 726.16 398.84 712.84 398.53 699.5C398.05 678.3 397.66 657.25 394.38 636.29C393.83 632.76 394.67 629.05 393.92 625.55C392.47 618.87 384.81 615.72 378.67 617.27C365.01 620.72 371.04 639.96 371.79 649.45C373.26 668.15 373.57 686.76 374.32 705.5C374.85 718.81 376.31 732.78 375.39 746.03C375.37 748.19 375.36 750.34 375.34 752.5C375.48 752.63 375.61 752.77 375.74 752.9C376.85 763.93 376.67 775.4 376.93 786.5C377.07 792.66 378.02 799.39 377.33 805.5C376.52 812.6 372.7 819.2 370.45 825.89C367.23 835.47 364.54 846.06 356.18 852.65C353.11 855.07 348.25 856.03 344.57 857.2C337.38 859.5 330 862.9 322.47 863.91C316.02 864.78 306.15 859.07 303.55 852.99C302.69 851 302.46 848.61 301.97 846.5C301.12 842.87 299.84 838.97 299.44 835.27C299.06 831.72 299.68 828.04 299.82 824.5C300.27 813.23 299.89 801.7 305.48 791.5C316.66 789.86 318.36 786.47 319.5 775.73C328.91 769.05 325.43 762.92 326.15 753.5C327.05 741.77 329.09 730.34 329.1 718.5C329.1 705.85 328.31 693.1 329.2 680.46C330.28 664.95 333.63 649.8 336 634.5C338.32 619.52 340.6 594.53 348.2 581.68C350.43 577.92 353.06 571.82 357.02 569.56C364.15 565.48 372.9 568.42 380.33 566.76C382.19 566.34 383.78 564.76 385.69 564.27C388.54 563.54 391.6 563.76 394.44 562.86C399.03 561.41 403.64 560.2 408.35 558.82C413.56 557.3 419.34 556.02 424.31 553.83C426.74 552.76 428.33 550.38 430.87 549.43C434.57 548.05 438.7 548.15 442.36 546.96C445.52 545.94 448.51 543.46 451.29 541.76C455.92 538.93 461.36 537.14 466.21 534.69C471.5 532.02 476.8 529.32 482.01 526.5C484.8 524.99 487.79 522.32 490.82 521.41C494.19 520.4 506 522.3 510.5 522.31C515.93 522.33 521.15 521.76 526.52 521.25C529.47 520.97 532.55 521.46 535.46 520.92C537.45 520.56 538.93 518.81 540.77 518.43C542.23 518.13 544.03 519.11 545.5 519.26C548.62 519.59 551.52 519.01 554.5 518.22C558.96 521.57 563.21 520.79 568.49 521.24C575.87 521.89 583.05 522.46 590.5 522.19C594.64 522.04 599.4 520.54 603.48 521.18C607.71 521.85 612.55 526.19 616.4 528.14C627.16 533.62 637.82 539 649 543.52C651.54 544.55 652.79 547.44 655.04 548.42C656.32 548.98 658.12 548.64 659.5 548.85C661.47 549.14 662.86 550.32 664.7 550.77C666.85 551.3 669.09 550.77 671.28 551.3C674.67 552.13 676.23 554.96 679.11 556.42C684.61 559.23 691.5 559.61 697.36 561.28C698.55 561.63 699.46 562.43 700.63 562.82C703.45 563.75 706.52 563.55 709.37 564.23C711.57 564.75 713.35 566.53 715.54 566.87C724.87 568.28 735.28 564.7 741.96 573.57C752.34 587.37 754.49 604.79 757.36 621.34C760.75 640.87 764.45 660.7 765.97 680.5C766.87 692.16 766.12 703.84 766.11 715.5C766.1 728.69 768.38 741.43 769.1 754.5C769.56 762.9 766.9 769.92 775.53 775.5C777.01 786.17 778.32 789.89 789.76 791.5C796.09 803.3 797.37 828.82 794.3 841.62C793.11 846.54 792.92 852.06 789.53 856.04C786.42 859.68 780.42 863.6 775.51 863.99C771.61 864.29 767.95 862.21 764.19 861.44C758.29 860.24 744.37 856.3 739.55 853C736.62 851 733.33 846.98 731.61 843.89C727.94 837.25 726.4 829.78 723.68 822.76C721.54 817.24 718.56 811.46 717.91 805.5C717.48 801.59 718.02 797.43 718.08 793.5C718.25 782.83 718.94 772.18 719.12 761.5C719.43 742.83 720.37 724.17 720.91 705.5C721.31 691.48 721.36 677.5 722.23 663.5C722.91 652.52 726.69 636.93 724.97 626.52C722.69 612.82 703.74 613.88 700.77 628.14Z" fill="#00ff7f" fill-rule="evenodd" stroke="#00ff7f" stroke-width="0.25" stroke-linejoin="round"/>
<path d="M322.37 61.5C324.78 60.6 327.05 58.82 329.66 58.3C336.43 56.93 344.08 59.04 350.55 60.94C381.27 69.97 398.63 92.87 413.61 119.9C417.82 127.5 422.13 135.46 424.6 143.83C428.1 155.7 429.31 168.54 433.5 180.11C439.03 178.55 444.23 175.96 449.72 174.27C459.98 171.1 470.78 168.44 481.5 167.82C487.65 167.46 492.65 166.73 498.5 169.08C506.18 162.03 524.52 162.85 534.47 164.22C538.85 164.82 543.05 166.1 547.5 166.11C556.62 166.14 565.24 163.01 574.5 163.69C582.12 164.24 590.63 163.32 596.5 168.96C616.15 162.97 642.69 173.69 661.5 180.15C663.29 176.79 663.68 172.67 664.48 168.92C666.41 159.85 668.2 150.53 671.33 141.77C680.98 114.81 704.81 78.21 731.28 65.75C740.95 61.21 754.62 56.35 765.41 58.26C768.06 58.73 770.3 60.48 772.67 61.5C781.21 54 787.72 48.8 799.52 47.15C822.93 43.86 845.57 59.1 840.76 84.43C838.5 96.38 830.99 112.33 820.28 118.78C816.39 121.12 812.05 122.5 807.6 123.31C800.1 124.67 791.78 125.05 784.68 121.83C771.37 115.78 764.34 98.14 764.5 84.38C759.76 81.52 755.44 83.28 750.32 84.74C741.6 87.24 733.8 91.4 727.38 97.89C714 111.42 700.18 132.5 694.11 150.56C691.5 158.33 689.92 166.55 688.18 174.55C686.94 180.22 686.51 186.27 683.89 191.5C686.47 194.07 689.81 195.58 692.83 197.64C697.66 200.95 702.52 204.72 707 208.5C727.51 225.81 744.66 248.26 755.78 272.71C763.92 290.61 769.74 309.94 771.92 329.5C773.55 344.06 773.18 360.2 770.2 374.54C766.78 391.02 762.16 406.91 754.5 422.01C735.89 458.71 702.05 485.71 665.36 502.89C657.19 506.72 648.57 509.42 640.12 512.5C645.22 516.42 652.28 518.7 658.13 521.41C671.19 527.46 685.19 534.63 699.54 536.94C702.9 537.48 706.07 536.31 709.45 537.13C713.1 538.03 716.1 541.01 719.57 541.92C722.43 542.66 725.58 541.82 728.5 542.12C735.93 542.87 748.02 545.92 753.87 550.62C772.59 565.67 777.59 594.29 781.22 616.46C785.22 640.97 790.15 665.57 790.95 690.5C791.3 701.2 789.98 711.82 790.37 722.5C790.67 730.86 792.13 739.18 792.9 747.5C793.44 753.49 792.88 759.7 794.31 765.5C798.05 766.7 801.8 768 804.79 770.7C818.41 783 819.48 807.68 819.89 824.5C820.48 849.26 816.2 871.98 792.17 883.66C786.6 886.37 780.82 888.64 774.5 888.69C765.52 888.76 752.47 883.69 744.07 880.47C739.76 878.82 734.94 879.56 730.68 877.8C726.58 876.11 722.37 870.45 719.5 867.15C717.94 874.45 718.37 885.58 717.72 893.5C715.57 919.5 715.16 945.54 713.25 971.52C712.83 977.15 713.5 982.86 713.12 988.5C712.92 991.56 711.93 994.43 711.66 997.5C711.26 1001.99 712.03 1007.18 709.76 1011.25C705.37 1019.1 695.65 1020.22 687.8 1022.39C679.53 1024.68 671.04 1025.38 662.54 1026.31C647.28 1027.99 631.88 1029.73 616.5 1029.95C607.34 1030.09 593.51 1031.72 587.98 1022.49C583.7 1015.34 583.74 1005.58 582.84 997.5C580.61 977.5 583.01 957.48 580.71 937.5C580.31 934.11 580.37 930.89 579.5 927.59C580.01 927.45 581.46 927.83 581.72 927.29C582.39 925.89 581.36 922.98 581.16 921.5C580.43 915.78 579.58 909.9 578.5 904.26C557.86 904.26 537.23 904.26 516.59 904.26C515.85 910.02 514.69 915.75 514.01 921.5C513.88 922.67 512.84 926.19 513.42 927.28C513.62 927.65 515.18 927.65 515.5 927.87C514.85 931.02 515.08 934.16 514.66 937.36C512 957.69 514.51 978.09 512.3 998.54C511.43 1006.62 511.48 1017.06 506.4 1023.86C500.51 1031.75 487.04 1030.08 478.5 1029.95C463.46 1029.71 448.29 1028.18 433.38 1026.39C424.58 1025.33 415.83 1024.71 407.27 1022.31C399.47 1020.12 389.64 1019.09 385.44 1011.1C383.23 1006.9 384.07 1002.07 383.71 997.5C383.48 994.42 382.28 991.58 382.07 988.5C381.7 982.85 382.35 977.14 381.97 971.5C380.2 944.83 379.81 918.08 377.4 891.44C376.69 883.58 377.33 869.4 375.5 862.8C373.29 865.5 371.63 869.22 368.88 871.39C366.98 872.87 364.62 873.69 362.71 875.2C361.43 876.22 360.43 877.75 358.91 878.43C355.87 879.78 352.21 880.37 349.03 881.52C341.28 884.33 328.68 888.82 320.5 888.68C314.21 888.58 308.47 886.28 302.93 883.58C278.64 871.74 274.67 848.38 275.39 823.5C275.99 802.88 277.6 773.12 300.89 765.5C302.49 759.98 301.69 754.21 302.24 748.51C303.09 739.87 304.63 731.18 304.91 722.5C305.24 712.13 303.8 701.88 304.21 691.5C305.22 666.23 309.87 641.35 313.99 616.5C317.7 594.13 322.38 566.01 341.26 550.78C347.33 545.88 358.82 543.03 366.52 542.14C369.44 541.8 372.59 542.67 375.45 542C378.9 541.19 381.98 538.14 385.56 537.2C389.22 536.24 392.71 537.52 396.34 536.78C410.51 533.88 423.94 527.54 436.97 521.49C442.91 518.73 449.87 516.42 455.1 512.5C446.64 509.27 437.97 506.62 429.71 502.82C415.4 496.23 401.58 488.02 389.06 478.47C340.5 441.43 314.93 382.28 324.72 321.44C327.53 303.99 332.57 286.78 340.37 270.83C351.82 247.41 367.87 225.26 388.1 208.59C392.46 204.99 397.08 201.43 401.69 198.16C404.91 195.86 408.52 194.23 411.35 191.5C407.31 183.53 406.02 168.86 403.76 159.68C399.36 141.85 389.6 125.43 378.62 110.86C373.47 104.02 368.3 97.28 361.25 92.27C353.2 86.57 341.11 81.32 331.31 83.5C329.33 95.69 327.06 108.1 317.56 117.06C305.02 128.88 281 125.8 269.25 114.25C262.14 107.26 257.97 96.82 255.22 87.41C248.82 65.48 263.97 48.96 285.5 47C300.16 45.67 312.31 51.36 322.37 61.5ZM299.5 99.92C306.94 95.04 308.51 81.79 302 75.5C295.78 69.5 284.52 70.07 278.27 75.5C278.24 79.34 279.2 85.51 281.98 88.51C283.4 90.05 285.69 90.72 287.21 92.25C291.04 96.12 293.72 99.51 299.5 99.92ZM816.92 75.5C809.81 69.3 795.02 69.47 790.63 79.11C787.49 86.01 789.65 94.13 794.8 99.5C800.9 100.38 803.96 96.41 807.9 92.4C809.43 90.83 811.71 90.18 813.16 88.66C816 85.66 816.96 79.36 816.92 75.5ZM541.81 188.45C537.98 188.84 534.32 188.56 530.5 188.73C527.41 188.87 524.56 190.05 521.5 190.11C512.57 190.3 503.44 189.33 494.5 190.17C491.46 190.46 488.5 191.44 485.48 191.84C465.8 194.45 446.58 199.6 429.27 209.76C385.11 235.65 358.47 274.34 348.95 324.5C346.35 338.24 346 353.5 348.35 367.32C351.81 387.7 359.25 406.74 370.43 424.1C378.99 437.4 390.68 448.75 403.07 458.44C429.38 479.03 462.43 492.1 495.36 496.84C503.86 498.07 512.03 497.22 520.49 497.51C524.16 497.63 527.83 498.6 531.5 498.8C536.81 499.1 542.18 498.58 547.5 498.58C552.82 498.58 558.18 499.08 563.5 498.82C567.2 498.64 570.87 497.7 574.55 497.51C579.48 497.26 584.51 498.15 589.5 497.87C599.94 497.29 610.21 495.14 620.35 492.73C676.61 479.32 729.24 439.29 743.89 381.5C747.71 366.47 748.78 350.96 747.78 335.5C746.7 318.74 741.62 302.67 735.36 287.22C728.24 269.67 717.14 253.11 704.1 239.39C676.19 210.01 641.27 194.93 601.46 190.24C592.24 189.15 582.73 190.41 573.5 190.12C570.77 190.03 568.24 188.99 565.5 188.8C562.81 188.61 560.18 189.04 557.5 188.93C552.23 188.72 547.13 187.92 541.81 188.45ZM448.73 253.37C485.6 247.6 504.74 279.6 509 311.5C512.57 338.2 505.17 368.98 489.46 390.94C484.12 398.4 477.85 404.48 471.1 410.59C468.82 412.66 466.93 415.13 464.43 416.97C461.18 419.36 457.56 420.69 454.07 422.59C447.5 426.17 441.08 430.71 433.48 432.02C428.62 432.86 420.52 431.62 415.53 430.85C392.66 427.29 380.72 395.32 377.69 375.51C372.67 342.67 382.36 307.61 403.41 281.89C414.85 267.92 430.53 256.22 448.73 253.37ZM629.75 253.4C650.14 249.9 669.68 259.65 684.01 273.48C710.74 299.29 723.75 340.22 717.36 376.71C714.05 395.64 703.74 423.61 683.44 429.87C679.75 431.01 676.2 430.94 672.4 431.33C655.98 433.03 653.8 428.99 640.34 422.18C631.8 417.86 630.43 415.98 623.49 410.02C595.37 385.89 580.2 345.24 586.86 308.47C591.18 284.64 602.98 257.98 629.75 253.4ZM480.5 351C483.38 347.36 483.72 341.27 484.38 336.68C486.48 322.15 484.97 306.31 478.52 292.97C475.59 286.91 469.6 278.05 462.1 278.5C469.14 287.39 475.29 297.07 476.84 308.52C477.1 310.49 476.9 312.5 477.2 314.45C478.08 320.07 479.35 325.78 479.94 331.5C480.6 338.01 480.18 344.54 480.5 351ZM633.12 278.5C625.75 278.29 619.96 286.41 616.95 292.45C610.28 305.84 608.7 321.86 610.86 336.5C611.5 340.83 611.69 346.79 614.5 350C616.08 333.44 615.43 315.96 620.39 299.82C622.81 291.97 628.15 284.91 633.12 278.5ZM535.26 410.5C537.33 411.71 539.37 412.68 541.06 414.44C543.5 417 544.03 419.31 547.5 420.78C551.56 419.26 552 416.23 555.05 413.55C556.47 412.3 558.71 411.82 559.81 410.3C562.92 405.99 561.96 400.8 567.06 397.56C574.97 392.54 585.51 398.7 586.98 407.53C588.18 414.76 582.4 422.31 577.95 427.45C575.3 430.5 572.32 433.13 569.48 435.97C562.05 443.41 558.46 445.83 547.5 445.84C542.99 445.84 538.97 445.66 534.83 443.68C530.92 441.82 528.62 438.81 525.64 435.85C518.84 429.11 505.83 417.54 508.39 406.8C510.58 397.61 522.17 391.98 529.78 398.72C533.09 401.65 534.09 406.44 535.26 410.5ZM375.74 752.9C375.62 750.61 375.5 748.32 375.39 746.03C376.31 732.78 374.85 718.81 374.32 705.5C373.57 686.76 373.26 668.15 371.79 649.45C371.04 639.96 365.01 620.72 378.67 617.27C384.81 615.72 392.47 618.87 393.92 625.55C394.67 629.05 393.83 632.76 394.38 636.29C397.66 657.25 398.05 678.3 398.53 699.5C398.84 712.84 399.69 726.16 399.92 739.5C400.11 750.45 399.61 761.58 400.25 772.49C400.37 774.38 401.19 776.12 401.42 778C401.96 782.39 401.11 787.08 401.15 791.5C401.17 795.21 401.91 798.87 402 802.5C402.15 809.05 396.96 818.38 397.21 824.48C397.3 826.61 398.93 828.93 399.49 831.01C400.22 833.7 400.83 836.72 401.08 839.5C402.03 850.45 400.55 861.53 400.84 872.5C401.25 888.22 403.15 903.82 404.01 919.5C405.13 940.03 404.72 960.66 406.31 981.15C406.46 983.07 406.61 984.99 406.75 986.91C407.34 990.3 407.92 993.69 408.5 997.09C417.37 1000.72 427.09 1001.04 436.5 1002.21C453.06 1004.28 469.8 1005.29 486.5 1005.67C490.67 989.95 489.27 972.6 488.62 956.5C488.39 950.76 489.49 945.17 489.61 939.5C489.67 936.86 488.8 934.19 488.77 931.5C488.68 924.4 489.87 917.44 491.16 910.5C492.72 902.13 491.58 891.21 496.29 883.76C501.95 874.81 513.12 878.97 521.49 879.88C527.95 880.59 534.99 880.31 541.47 879.85C552.12 879.09 562.86 880.98 573.53 879.91C580.72 879.2 588.61 875.85 595.34 880.14C603.74 885.5 602.53 902.63 604.18 911.45C605.46 918.29 606.87 925.43 606.57 932.46C606.47 934.83 605.66 937.12 605.68 939.5C605.7 944.15 606.78 948.81 606.8 953.5C606.9 971.61 605.36 987.11 608.5 1005.29C616.47 1006.89 625.43 1004.8 633.5 1004.31C644.28 1003.65 654.82 1002.49 665.55 1001.32C672.73 1000.54 679.69 999.81 686.5 997.25C687.19 993.72 687.88 990.19 688.57 986.66C688.64 984.83 688.7 983 688.76 981.17C689.17 977.28 688.84 973.4 689.06 969.5C689.58 960.5 690.55 951.51 690.86 942.5C691.12 934.84 690.72 927.16 691.2 919.5C692.18 903.48 693.93 887.54 694.45 871.5C694.8 860.86 693.27 850.15 694.14 839.5C694.56 834.41 697.76 828.18 698.02 824.48C698.24 821.35 696.58 817.62 696.09 814.5C694.67 805.34 692.93 795.78 693.11 786.5C693.24 779.1 694.8 771.88 694.92 764.5C695.26 744.16 695.95 723.83 696.62 703.5C696.96 693.19 696.56 682.8 697.16 672.5C697.67 663.85 698.36 655.12 699.23 646.5C699.65 642.32 700.76 638.09 700.76 633.95C700.76 632.01 700.76 630.08 700.77 628.14C703.74 613.88 722.69 612.82 724.97 626.52C726.69 636.93 722.91 652.52 722.23 663.5C721.36 677.5 721.31 691.48 720.91 705.5C720.37 724.17 719.43 742.83 719.12 761.5C718.94 772.18 718.25 782.83 718.08 793.5C718.02 797.43 717.48 801.59 717.91 805.5C718.56 811.46 721.54 817.24 723.68 822.76C726.4 829.78 727.94 837.25 731.61 843.89C733.33 846.98 736.62 851 739.55 853C744.37 856.3 758.29 860.24 764.19 861.44C767.95 862.21 771.61 864.29 775.51 863.99C780.42 863.6 786.42 859.68 789.53 856.04C792.92 852.06 793.11 846.54 794.3 841.62C797.37 828.82 796.09 803.3 789.76 791.5C778.32 789.89 777.01 786.17 775.53 775.5C766.9 769.92 769.56 762.9 769.1 754.5C768.38 741.43 766.1 728.69 766.11 715.5C766.12 703.84 766.87 692.16 765.97 680.5C764.45 660.7 760.75 640.87 757.36 621.34C754.49 604.79 752.34 587.37 741.96 573.57C735.28 564.7 724.87 568.28 715.54 566.87C713.35 566.53 711.57 564.75 709.37 564.23C706.52 563.55 703.45 563.75 700.63 562.82C699.46 562.43 698.55 561.63 697.36 561.28C691.5 559.61 684.61 559.23 679.11 556.42C676.23 554.96 674.67 552.13 671.28 551.3C669.09 550.77 666.85 551.3 664.7 550.77C662.86 550.32 661.47 549.14 659.5 548.85C658.12 548.64 656.32 548.98 655.04 548.42C652.79 547.44 651.54 544.55 649 543.52C637.82 539 627.16 533.62 616.4 528.14C612.55 526.19 607.71 521.85 603.48 521.18C599.4 520.54 594.64 522.04 590.5 522.19C583.05 522.46 575.87 521.89 568.49 521.24C563.21 520.79 558.96 521.57 554.5 518.22C551.52 519.01 548.62 519.59 545.5 519.26C544.03 519.11 542.23 518.13 540.77 518.43C538.93 518.81 537.45 520.56 535.46 520.92C532.55 521.46 529.47 520.97 526.52 521.25C521.15 521.76 515.93 522.33 510.5 522.31C506 522.3 494.19 520.4 490.82 521.41C487.79 522.32 484.8 524.99 482.01 526.5C476.8 529.32 471.5 532.02 466.21 534.69C461.36 537.14 455.92 538.93 451.29 541.76C448.51 543.46 445.52 545.94 442.36 546.96C438.7 548.15 434.57 548.05 430.87 549.43C428.33 550.38 426.74 552.76 424.31 553.83C419.34 556.02 413.56 557.3 408.35 558.82C403.64 560.2 399.03 561.41 394.44 562.86C391.6 563.76 388.54 563.54 385.69 564.27C383.78 564.76 382.19 566.34 380.33 566.76C372.9 568.42 364.15 565.48 357.02 569.56C353.06 571.82 350.43 577.92 348.2 581.68C340.6 594.53 338.32 619.52 336 634.5C333.63 649.8 330.28 664.95 329.2 680.46C328.31 693.1 329.1 705.85 329.1 718.5C329.09 730.34 327.05 741.77 326.15 753.5C325.43 762.92 328.91 769.05 319.5 775.73C318.36 786.47 316.66 789.86 305.48 791.5C299.89 801.7 300.27 813.23 299.82 824.5C299.68 828.04 299.06 831.72 299.44 835.27C299.84 838.97 301.12 842.87 301.97 846.5C302.46 848.61 302.69 851 303.55 852.99C306.15 859.07 316.02 864.78 322.47 863.91C330 862.9 337.38 859.5 344.57 857.2C348.25 856.03 353.11 855.07 356.18 852.65C364.54 846.06 367.23 835.47 370.45 825.89C372.7 819.2 376.52 812.6 377.33 805.5C378.02 799.39 377.07 792.66 376.93 786.5C376.67 775.4 376.85 763.93 375.74 752.9Z" fill="#000000" fill-rule="evenodd" stroke="#000000" stroke-width="0.25" stroke-linejoin="round"/>
<path d="M480.5 351C480.18 344.54 480.6 338.01 479.94 331.5C479.35 325.78 478.08 320.07 477.2 314.45C476.9 312.5 477.1 310.49 476.84 308.52C475.29 297.07 469.14 287.39 462.1 278.5C469.6 278.05 475.59 286.91 478.52 292.97C484.97 306.31 486.48 322.15 484.38 336.68C483.72 341.27 483.38 347.36 480.5 351ZM633.12 278.5C628.15 284.91 622.81 291.97 620.39 299.82C615.43 315.96 616.08 333.44 614.5 350C611.69 346.79 611.5 340.83 610.86 336.5C608.7 321.86 610.28 305.84 616.95 292.45C619.96 286.41 625.75 278.29 633.12 278.5Z" fill="#ffffff" fill-rule="evenodd" stroke="#ffffff" stroke-width="0.25" stroke-linejoin="round"/>
</svg>